<svg version="1.1"
	 xmlns="http://www.w3.org/2000/svg" xmlns:xlink="http://www.w3.org/1999/xlink" xmlns:a="http://ns.adobe.com/AdobeSVGViewerExtensions/3.0/"
	 id="sprites" style="display:none;"
	 xml:space="preserve">
<defs>
<symbol id="logo"  viewBox="0 0 199.3 220.8">
<path d="M170.1,32.4C151.3,11.5,126.3,0,99.6,0S48,11.5,29.2,32.4C10.4,53.2,0,80.9,0,110.4
	c0,29.5,10.4,57.2,29.2,78.1C48,209.3,73,220.8,99.6,220.8s51.7-11.5,70.5-32.4c18.8-20.9,29.2-48.6,29.2-78.1
	C199.3,80.9,188.9,53.2,170.1,32.4z M91.8,204.3c-22.4,0-31.4-18.6-31.4-43.2c0-18.3,6.6-54.1,12-86.1c-6.6-0.3-12.9-0.5-19.4-1.4
	c-1.1-2.7-1.1-6.8,0.8-9.3c6.6,0.5,13.4,0.8,20.2,0.5c3-17.8,5.2-33.4,5.2-42.9c7.1-5.5,11.8-6.3,18.9-7.1c0,11.2-2.7,29.5-6,49.2
	c12.3-0.8,24.6-2.5,36.9-4.6c2.2,3.3,1.4,9.6-0.8,12.9c-12.6,1.4-25.2,2.5-38,2.7c-5.5,32.3-12.3,67.3-12.3,84.8
	c0,18.3,6,31.7,22.4,31.7c20.2,0,40.5-32.8,46.2-61.2l9,2.2C145.7,167.9,123,204.3,91.8,204.3z"/>
</symbol>
</defs>
</svg>
